<svg width="100" height="100" xmlns="http://www.w3.org/2000/svg" xml:space="preserve">
    <rect width="100" height="100" fill="#002b4a"/>
    <g stroke="null" fill-rule="evenodd">
        <path stroke="null" fill="white" d="m75.80146,19.41789c-0.05081,0.07972 -0.23414,0.52838 -0.40743,0.99698c-3.62003,9.79405 -21.49412,28.17979 -38.01568,39.10409c-1.49143,0.98618 -1.3927,0.9877 -2.13225,-0.03438c-4.9648,-6.86185 -7.16856,-16.72269 -6.09993,-27.29402c0.21026,-2.07991 0.16112,-1.98452 1.26474,-2.45388c6.02507,-2.56235 20.98673,-3.32473 33.07841,-1.68541c1.27661,0.17298 1.31936,0.17025 1.56796,-0.10543c1.02573,-1.13771 4.49423,-6.1588 4.49423,-6.50645c0,-0.41291 -6.16885,-1.33382 -11.53986,-1.72269c-12.3812,-0.89656 -24.40214,0.29378 -33.58504,3.32579c-2.26553,0.74792 -2.15888,0.6682 -2.30508,1.7236c-1.14957,8.29212 -0.13312,21.25709 2.27526,29.02234c1.6028,5.16776 4.97834,11.20014 8.09981,14.47466c0.49324,0.51743 0.51637,0.515 1.62547,-0.1777c5.26178,-3.28654 11.22524,-7.84924 17.99413,-13.76781c14.581,-12.74923 22.60992,-23.85017 23.76299,-32.85522c0.19094,-1.49067 0.15594,-2.41082 -0.07774,-2.04447"/>
        <path stroke="null" fill="#2AD9FF" d="m76.67064,34.05443c-0.8529,0.65679 -2.11841,1.6308 -2.81232,2.1642s-1.27707,0.99485 -1.29593,1.02543c-0.05097,0.08246 -0.18789,1.30643 -0.39465,3.52723c-0.42797,4.59769 -0.72069,6.38975 -1.46542,8.9693c-2.7542,9.53982 -10.28288,18.06092 -20.17932,22.83935c-1.32986,0.64203 -1.36774,0.64553 -2.16253,0.19793c-1.31023,-0.73773 -1.84866,-1.08263 -4.96237,-3.17913c-0.97918,-0.65923 -1.81762,-1.19872 -1.86327,-1.19872c-0.3414,0 -4.87611,3.05529 -4.87611,3.28532c0,0.09174 3.78039,3.02197 5.75091,4.45787c1.98209,1.44412 5.14905,3.50791 6.6169,4.31166l0.37898,0.20767l0.52108,-0.26533c9.76165,-4.97104 18.2733,-12.86607 22.74289,-21.09521c3.73749,-6.88147 5.15102,-12.84432 5.55389,-23.42965c0.05097,-1.33884 0.10452,-2.52477 0.11928,-2.63553c0.02723,-0.2063 -0.00958,-0.37685 -0.08109,-0.37685c-0.02221,0 -0.73819,0.53751 -1.59093,1.19446"/>
    </g>
</svg>
